# xmcd CD database file
#
# Track frame offsets:
#	150
#	14877
#	51040
#	76587
#	100945
#	111612
#	128622
#	155972
#	182887
#	207642
#	234160
#
# Disc length: 3372 seconds
#
# Revision: 0
# Processed by: cddbd v1.5.1PL0 Copyright (c) Steve Scherf et al.
# Submitted via: CDex 1.51
#
DISCID=970d2a0b
DTITLE=Holly Hofmann Quartet - Further Adventures
DYEAR=1990
DGENRE=Jazz
TTITLE0=Further Adventures
TTITLE1=Mount Harissa
TTITLE2=True Blues
TTITLE3=Upside Down
TTITLE4=Cute
TTITLE5=Tempus Fugit
TTITLE6=I'm All Smiles
TTITLE7=Without A Song
TTITLE8=A Time For Love
TTITLE9=Green Chimneys
TTITLE10=Gillian's Waltz
EXTD=YEAR: 1990
EXTT0=
EXTT1=
EXTT2=
EXTT3=
EXTT4=
EXTT5=
EXTT6=
EXTT7=
EXTT8=
EXTT9=
EXTT10=
PLAYORDER=
